<?xml version="1.0" encoding="UTF-8" standalone="no"?>
<!-- Created with Inkscape (http://www.inkscape.org/) -->

<svg
   width="204.60306mm"
   height="139.34033mm"
   viewBox="0 0 204.60306 139.34033"
   version="1.1"
   id="svg5"
   sodipodi:docname="slay.svg"
   inkscape:version="1.1.2 (0a00cf5339, 2022-02-04)"
   xmlns:inkscape="http://www.inkscape.org/namespaces/inkscape"
   xmlns:sodipodi="http://sodipodi.sourceforge.net/DTD/sodipodi-0.dtd"
   xmlns="http://www.w3.org/2000/svg"
   xmlns:svg="http://www.w3.org/2000/svg">
  <sodipodi:namedview
     id="namedview15"
     pagecolor="#ffffff"
     bordercolor="#999999"
     borderopacity="1"
     inkscape:pageshadow="0"
     inkscape:pageopacity="0"
     inkscape:pagecheckerboard="0"
     inkscape:document-units="mm"
     showgrid="false"
     inkscape:zoom="1.1345597"
     inkscape:cx="403.68083"
     inkscape:cy="237.09638"
     inkscape:window-width="1920"
     inkscape:window-height="1022"
     inkscape:window-x="0"
     inkscape:window-y="0"
     inkscape:window-maximized="1"
     inkscape:current-layer="svg5" />
  <defs
     id="defs2" />
  <g
     id="layer1"
     transform="translate(-54.33275,-17.428714)">
    <path
       style="fill:#784421;stroke:#000000;stroke-width:0.264583px;stroke-linecap:butt;stroke-linejoin:miter;stroke-opacity:1"
       d="m 72.900739,143.21318 c 7.469012,-2.44995 15.838584,0.36361 23.137523,-2.10888 0.435843,-0.14764 1.065075,0.0665 1.523476,0 1.564778,-0.22686 3.496002,-0.69247 4.924382,-1.40686 0.65918,-0.32968 2.58156,-1.52624 3.16593,-2.11061 0.44446,-0.44447 0.46348,-1.27844 0.70296,-1.7574 0.41664,-0.83328 0.97242,-1.59336 1.40151,-2.45156 0.70107,-1.40213 0.90991,-3.42332 1.40592,-4.92071 0.31373,-0.94711 0.73715,-1.86645 1.04794,-2.79883 0.11115,-0.33344 -0.0853,-0.71345 0,-1.05444 0.12708,-0.50831 0.57588,-0.89761 0.70296,-1.40592 0.14208,-0.56831 -0.1151,-1.18302 0,-1.75739 0.16281,-0.81242 0.56154,-1.60837 0.70383,-2.46209 0.5323,-3.19385 0.006,-7.68157 -0.35148,-10.89586 -0.0647,-0.58222 0.12708,-1.18555 0,-1.7574 -0.55704,-2.50669 -2.36318,-4.73072 -3.51042,-7.025209 -0.22865,-0.457301 -0.43557,-1.35632 -0.70296,-1.757397 0.86731,-1.064099 -0.95604,-0.604568 -1.05444,-0.702958 -0.58795,-0.587952 -1.26226,-1.725171 -1.73452,-2.437477 -0.50403,-0.760209 -0.54848,-1.701419 -1.05444,-2.460355 -0.35051,-0.525759 -1.11922,-0.839025 -1.39942,-1.399416 -0.0514,-0.102854 0,-0.229986 0,-0.344979 -0.11716,-0.23432 -0.20616,-0.484981 -0.35148,-0.702958 -0.33136,-0.497049 -1.22158,-0.852919 -1.40592,-1.40592 -0.534838,-1.604531 -0.746801,-1.464378 -1.75739,-2.811832 -0.635722,-0.847627 -0.945592,-2.242662 -1.405919,-3.163314 -0.234236,-0.468474 -0.709311,-0.789373 -0.937779,-1.268931 -0.254037,-0.533233 -0.07808,-1.531556 -0.351477,-2.054214 -0.788088,-1.50662 -1.671289,-5.859955 -1.050031,-7.723727 0.61785,-1.853549 1.405919,-3.566525 1.405919,-5.56413 0,-0.92879 0.232344,-2.578618 -0.657844,-3.07527 -1.368618,-0.76358 -7.64059,-0.351481 -9.535152,-0.351481 -0.783984,0 0.134617,0.0524 -1.054439,-0.351477 -1.213635,-0.412224 -4.419777,-0.214575 -5.551884,0.351477 -0.562314,0.281157 -1.564084,0.18832 -1.902457,0.907016 -1.727854,3.669914 -1.348365,6.179402 2.251186,8.589179 0.775766,0.519348 2.075098,0.67359 2.803017,1.401509 0.252539,0.252539 0.774837,1.126318 1.054438,1.405916 0.935186,0.935188 -0.31619,-1.38217 0.696781,0.345313 0.476729,0.812993 -0.414454,5.675916 -0.702959,6.252927 -0.623813,1.247624 -1.475753,2.530192 -2.453854,3.508293 -1.218615,1.218615 -3.083832,1.906294 -4.517247,2.766343 -3.269185,1.961512 2.463305,-0.704435 -1.757396,1.405916 -1.381586,0.690796 -4.511587,1.699755 -5.623668,2.811836 -0.185246,0.185245 -0.166234,0.517713 -0.35148,0.702958 -1.826839,1.82684 -0.366111,-0.33319 -1.757396,1.405917 -2.888585,3.610731 -5.839073,7.206425 -8.084024,11.247335 -1.042288,1.87612 -1.628959,4.03523 -2.460355,5.97515 -0.166402,0.38827 -0.554635,0.65891 -0.702959,1.05444 -0.770187,2.05383 -0.723282,5.76594 -1.054437,8.08402 -0.268448,1.87913 -0.142583,4.63555 0.702958,6.32663 0.0741,0.14819 0.23432,0.23432 0.351479,0.35148 0.23432,0.35148 0.536557,0.66616 0.702959,1.05444 0.292708,0.68298 0.992238,3.3147 1.405917,3.86627 1.232499,1.64333 4.62119,5.46523 6.312324,6.31948 0.561678,0.28373 0.843271,1.1246 1.405917,1.40592 0.447658,0.22383 1.288869,0.13193 1.706661,0.35148 0.29334,0.15415 0.388851,0.59737 0.702959,0.70296 0.21933,0.0737 0.462779,0 0.694168,0 0.23432,0.11716 0.454825,0.26744 0.702959,0.35148 0.575114,0.19477 2.724746,0.0505 3.112026,0.35148 0.118941,0.0924 -0.0543,0.76401 0,0.92297 0.147228,0.43103 0.338085,0.84591 0.507128,1.26886 z"
       id="path857" />
    <path
       style="fill:#28170b;stroke:#000000;stroke-width:0.264583px;stroke-linecap:butt;stroke-linejoin:miter;stroke-opacity:1"
       d="m 59.916965,144.31764 c 2.2008,-1.31289 4.922572,-1.79562 6.987479,-2.78748 0.915079,-0.43955 12.303273,0 13.465294,0 6.254972,0 12.509944,0 18.764916,0 2.799016,0 6.511676,0.48275 8.993376,-0.35148 0.50943,-0.17125 1.20793,0.1805 1.71437,0 0.65887,-0.23483 1.14784,-0.85943 1.7167,-1.04785 0.22035,-0.073 0.48895,0.1042 0.69637,0 1.02258,-0.5137 1.81633,-1.95314 2.46035,-2.81184 0.45817,-0.61089 1.36486,-1.10316 1.7574,-1.7574 1.27295,-2.12159 -0.18445,-0.1496 0.35148,-1.75739 0.24853,-0.7456 0.9003,-1.33821 1.05444,-2.10888 0.2648,-1.32402 0.72714,-2.5571 1.05443,-3.86627 0.54098,-2.16391 0,-5.14891 0,-7.38106 0,-3.37603 0.4478,-7.34725 -0.35148,-10.54437 -0.40954,-1.63818 0.12433,-2.92115 -0.69646,-4.56274 -0.45771,-0.91544 0.32671,-2.46172 0,-3.44185 -0.67998,-2.039963 -1.32878,-4.174627 -1.75739,-6.317678 -0.0919,-0.459539 0.11366,-0.951269 0,-1.405916 -0.15841,-0.633648 -0.52262,-1.220862 -0.70296,-1.757397 -0.2177,-0.31323 0.11023,-0.715002 0,-1.045673 -0.28513,-0.855385 -0.83789,-1.594157 -1.05444,-2.460355 -0.25871,-1.034844 -0.3596,-2.133248 -0.70295,-3.163316 -0.83293,-2.498765 0.0914,0.52433 -0.70297,-1.054436 -0.50542,-1.00452 -0.77359,-2.048714 -1.05003,-3.154508 -0.3511,-1.404374 -0.35418,-0.0054 -1.05444,-1.405916 -0.10479,-0.209582 0.0741,-0.480664 0,-0.702959 -0.43671,-1.310126 -1.70313,-3.433384 -2.46036,-4.569232 -0.6897,-1.034553 -1.14329,-2.989546 -1.75739,-4.217752 -0.20959,-0.419164 0.0919,-0.946378 0,-1.405916 -0.28288,-1.414394 -0.25649,-0.161489 -0.70296,-1.054436 -0.49322,-0.986446 -0.59317,-2.205543 -1.00598,-3.147161 -0.003,-0.0067 -0.10482,-10.390256 0,-10.569747 0.36932,-0.632415 1.3002,-2.037355 2.19278,-2.472883 0.36796,-0.179546 0.99321,0.129926 1.38299,0 0.77557,-0.258522 2.60752,-0.792422 3.44661,-0.35148 0.47394,0.249055 0.92133,0.808894 1.3994,1.047937 2.07366,1.03686 6.07264,5.065544 6.64483,7.354282 0.33694,1.34778 0.60841,2.879661 1.05444,4.217752 0.68209,2.046287 1.72998,4.404783 2.10887,6.678107 0.20836,1.250156 0.10369,2.627294 0.35148,3.866272 0.24226,1.211299 1.10546,2.312958 1.40592,3.514793 0.86839,3.473569 2.30789,9.085511 4.21775,11.950295 0.45061,0.675921 1.30678,1.081474 1.7574,1.757397 2.59532,3.892979 6.81736,4.737674 11.24733,5.623669 1.19255,0.238508 2.33778,0.05723 3.5148,0.351477 0.84575,0.21144 14.72944,0.272389 15.81899,0 2.02629,-0.506571 3.94458,-0.999802 5.97515,-1.405916 1.79597,-0.359196 3.80425,0.227428 5.62368,0 0.82204,-0.102756 1.70462,-0.01209 2.46035,-0.351478 0.096,-0.04311 -0.0766,-0.243546 0,-0.315698 0.16844,-0.158652 9.01883,0 9.81523,0 4.52472,0 10.51923,-0.953161 14.53443,1.054439 0.41654,0.208269 0.94055,-0.09177 1.39712,0 1.87484,0.376854 4.23896,0.889301 5.97515,1.757397 0.26319,0.131593 3.72218,2.987766 3.76201,3.065516 0.28611,0.55851 0.12656,1.12777 0.70296,1.70782 0.71609,0.72062 -0.0252,-1.10087 0.6941,0.34707 1.10985,2.23395 2.02065,4.65714 2.81183,7.02072 0.47702,1.42504 0,12.56411 0,15.07334 0,1.35323 -0.0929,7.04383 0.45718,7.59064 0.15945,0.15849 0.64815,0.18414 0.8439,0.28294 0.54339,0.27423 0.26685,0.61832 0.70296,1.05444 0.16569,0.16568 0.4922,-0.1024 0.70296,0 0.26717,0.12978 0.34555,0.54485 0.63008,0.63008 0.33476,0.10027 0.73581,-0.15628 1.04837,0 2.06363,1.03181 4.6905,0.69646 7.17231,0.69646 0.84393,0 2.84535,0.40518 3.51833,0 1.96772,-1.1847 5.08757,-2.38237 6.4907,-3.9627 0.90756,-1.02218 0.50699,-0.89973 0.8755,-2.00527 0.33937,-1.0181 0.91974,-1.852 1.32511,-2.71094 0.9318,-1.97438 0.70296,-4.16611 0.70296,-6.38626 0,-1.58393 0.45469,-5.8435 0,-7.20757 -0.23201,-0.69601 -0.40452,-1.1746 -0.70296,-1.7574 -0.31918,-0.62328 0.22104,-1.72927 0,-2.40076 -0.25613,-0.77808 -0.76874,-1.60982 -1.04792,-2.44734 -0.10544,-0.31633 0.10544,-0.73811 0,-1.05444 -0.18526,-0.55576 -0.78243,-0.86841 -1.04794,-1.3994 -0.2477,-0.4954 -0.16008,-1.52819 -0.35148,-2.10237 -0.84781,-2.54344 -2.37813,-5.107742 -3.51479,-7.381063 -0.26916,-0.538319 -0.62634,-0.274863 -1.05444,-0.702959 -0.14556,-0.14556 -3.11331,-3.414799 -3.16331,-3.514793 -0.56976,-1.139524 -2.35465,-3.299206 -0.97983,-4.674026 0.18525,-0.185246 0.51772,-0.166233 0.70296,-0.351481 0.18525,-0.185245 0.1335,-0.557638 0.35148,-0.702958 0.19497,-0.129977 0.49338,0.104791 0.70296,0 0.23432,-0.11716 0.1335,-0.557638 0.35148,-0.702958 4.62243,-3.081618 8.70691,-0.363096 12.19953,3.15011 0.0826,0.08309 -0.0828,0.268634 0,0.351478 0.0648,0.06477 0.98967,0.286716 1.05444,0.351481 1.75496,1.754962 3.20049,4.27351 4.56923,6.326626 0.36763,0.551447 1.00826,0.875713 1.40592,1.405917 0.46426,0.619021 0.60449,1.478952 1.05444,2.108877 0.81456,1.140394 1.83749,2.269079 2.46035,3.514789 0.51755,1.03509 0.48448,2.21339 1.05444,3.16332 0.84404,1.40673 1.72867,3.04843 2.10887,4.56923 0.48314,1.93254 0.29849,-0.88844 1.05444,1.75739 0.12875,0.45061 -0.077,0.94366 0,1.40592 0.0861,0.51683 0.60021,0.89214 0.70296,1.40592 0.3228,1.61402 0.37981,3.30496 0.70296,4.9207 0.33796,1.6898 -0.33796,3.58238 0,5.27219 1.61476,8.07378 -0.9466,14.83701 -4.92071,21.79171 -0.9997,1.74948 -2.07821,4.08307 -3.86627,5.27219 -1.59878,1.06324 -7.09932,3.17872 -9.1576,3.52177 -0.57783,0.0963 -1.17518,-0.0647 -1.7574,0 -1.53734,0.17081 -1.84872,0.75151 -3.51479,1.05444 -1.26797,0.23053 -2.58391,-0.12824 -3.86627,0 -9.68445,0.96844 -19.75047,0.35147 -29.52426,0.35147 -10.38787,0 -20.66589,-0.18644 -31.01786,-0.70731 -7.5727,-0.38103 -15.27054,0 -22.85727,0 -9.63228,0 -19.20028,-0.35148 -28.83523,-0.35148 -9.14367,0 -18.28734,0 -27.431001,0 -4.217752,0 -8.435507,0 -12.653259,0 -1.7658,0 -3.887217,0.28941 -5.623669,0 -0.730902,-0.12181 -1.382282,-0.55764 -2.108876,-0.70296 -0.974678,-0.19493 -2.254134,-0.0105 -3.163314,-0.35148 -1.210942,-0.4541 -1.95237,-1.30329 -3.163313,-1.75739 -1.060177,-0.39757 -2.884889,0.12841 -3.797972,-0.35148 -1.394618,-0.73297 1.153164,0.0329 -1.054438,-0.70296 -0.527219,-0.17574 -0.35148,0.35148 -1.054438,0 -0.104791,-0.0524 0.052,-0.2465 0,-0.35148 -0.110465,-0.22301 -0.836542,-0.59402 -1.041465,-0.69648 -0.497027,-0.24851 -1.189651,-0.25314 -1.642679,-0.6575 -1.049176,-0.93646 2.537587,-3.69956 2.753168,-3.91514 0.428771,-0.42878 0.544144,-1.0903 0.902371,-1.57956 z"
       id="path859" />
    <path
       style="fill:#c87137;stroke:#000000;stroke-width:0.264583px;stroke-linecap:butt;stroke-linejoin:miter;stroke-opacity:1"
       d="m 178.63858,80.54831 c 0.26629,-3.777959 1.13235,-2.482681 2.80372,-4.989745 0.40627,-0.609407 0.36476,-2.128488 0.70296,-2.811836 1.03997,-2.101265 3.60818,-3.272517 5.46276,-4.227102 0.31771,-0.163534 0.78818,0.21712 1.07198,0 1.43357,-1.096743 -1.61064,-6.254837 -2.07974,-6.781509 -0.89858,-1.008851 -2.73286,-1.844074 -3.38908,-2.499958 -0.47376,-0.473511 -0.25991,-1.331886 -0.5641,-1.928651 -1.30431,-2.55887 0.58768,-8.507016 -0.56231,-10.472748 -0.0548,-0.09373 -17.46572,-0.857176 -18.58945,-0.432935 -2.67729,1.010753 -5.12306,2.209183 -7.64465,3.469979 -1.51302,0.75651 -3.52001,1.408528 -4.92071,2.108874 -1.24206,0.62103 -0.70296,3.491839 -0.70296,4.644724 0,2.239393 -0.59542,20.849759 0,21.859184 0.66647,1.129871 2.21683,1.823553 3.00497,2.514179 0.87685,0.76835 1.20661,2.023012 1.89407,2.710064 0.13394,0.133858 1.30155,0 1.51031,0 2.52084,0 12.80378,0.655121 14.11403,0 1.64072,-0.820362 2.72172,-0.519343 4.49929,-1.111867 1.25259,-0.417531 2.23226,-1.413883 3.38891,-2.050653 1.72806,-0.951346 3.89375,-1.260676 5.2886,-2.655533 0.21698,-0.216979 -0.43019,-1.332598 0.63457,-0.702958 0.88768,0.524931 -5.3675,3.161099 -5.92317,3.358491 z"
       id="path1946" />
    <path
       style="fill:#000080;stroke:#000000;stroke-width:0.264583px;stroke-linecap:butt;stroke-linejoin:miter;stroke-opacity:1"
       d="m 148.24594,63.002961 c 2.41832,-2.252998 5.68773,-2.886852 8.50479,-4.296544 1.84516,-0.923341 3.91647,-2.909946 4.92419,-4.197758 0.38444,-0.491305 1.35763,0.353679 1.87152,0 0.43161,-0.297053 0.33247,-1.035426 0.70296,-1.405919 0.24653,-0.246531 14.58426,0.04766 17.82382,-1.664592 1.53796,-0.812879 5.81136,-8.800208 4.29715,-9.945809 -4.56775,-3.455802 -18.38633,-16.262144 -23.18624,-17.862114 -2.4119,-0.803967 -4.62013,-2.008683 -7.02959,-2.811834 -0.57107,-0.190359 -1.34353,0.199701 -1.91106,0 -2.90702,-1.022915 -5.703,-1.433808 -8.4119,-2.788237 -1.42177,-0.710871 -14.08663,0 -16.00072,0 -4.85575,0 -17.35917,-1.052901 -21.57078,0 -1.44707,0.361768 -2.77068,1.044149 -4.21775,1.405917 -0.90929,0.227323 -1.94159,-0.348096 -2.81183,0 -2.747952,1.09918 -4.662092,2.742782 -7.714962,3.505997 -0.68196,0.170493 -1.480125,-0.314372 -2.10887,0 -2.36065,1.180324 -6.493558,2.832455 -8.395333,4.217752 -0.06392,0.04656 0.05052,0.767229 0,0.864411 -1.022426,1.966663 -1.251169,2.087037 0.499084,3.837289 1.004274,1.004276 0.84737,0.111444 1.825678,0.625086 2.20695,1.158718 3.827827,3.04248 6.0716,4.029527 0.639276,0.28122 1.417641,-0.169386 2.095191,0 3.41651,0.854128 -0.0322,0.328927 2.09594,1.392981 3.53728,1.768641 7.621812,2.456839 11.143632,4.217752 0.72422,0.362109 1.98683,-0.366017 2.71022,0 2.73565,1.384173 0.0548,1.419611 2.81183,2.108874 1.85932,0.464831 3.76435,0.941089 5.62367,1.405917 1.27231,-0.423693 1.30738,1.138753 2.10887,1.405919 2.22689,0.742294 3.95292,0.752472 6.32663,2.108875 4.74266,2.71009 -1.53189,0.371385 2.81184,2.108874 0.18205,0.07282 4.99563,1.272704 5.08353,1.405919 0.93196,1.412447 6.57626,10.51737 7.31218,10.869192 1.34247,0.641792 5.82234,-0.382802 6.71471,-0.537475 z"
       id="path2277" />
    <path
       style="fill:#ffffff;stroke:#000000;stroke-width:0.264583px;stroke-linecap:butt;stroke-linejoin:miter;stroke-opacity:1"
       d="m 85.034636,22.749875 c -3.088865,1.536839 -7.111656,0.901745 -10.071222,2.441777 -1.083484,0.563799 0,2.442792 0,3.664189 0,2.336086 -0.324993,5.208316 0.689949,7.139423 0.305488,0.581247 1.09928,0.805624 1.392939,1.392938 0.615828,1.231654 -1.049925,0.224351 0.702958,1.392939 1.137869,0.758579 2.448091,0.872567 3.514794,1.405916 0.774615,0.387308 1.784638,1.173462 2.882434,0.702958 0.953947,-0.40885 1.970741,-0.753758 2.778122,-1.405916 1.057643,-0.854308 7.080648,-13.721298 5.600144,-14.725961 -0.87096,-0.591031 -1.8148,-1.178845 -2.718837,-2.082875 -2.189331,-2.189316 -1.326898,-2.291212 -4.771281,0.07461 z"
       id="path2312" />
    <path
       style="fill:#ffffff;stroke:#000000;stroke-width:0.264583px;stroke-linecap:butt;stroke-linejoin:miter;stroke-opacity:1"
       d="m 148.24594,63.002961 c -3.02658,-0.540591 -6.02199,-1.301387 -9.07973,-1.621771 -0.39442,-0.04133 -0.0833,2.938727 1.88811,2.938727 1.02143,0 2.80678,0.3263 3.81706,0 1.14903,-0.371115 2.16813,-1.266695 3.37456,-1.316956 1.41569,-0.05898 2.71573,0.924672 4.13042,1.004282 1.71068,0.09627 3.5233,-2.299308 4.63478,-3.410789 1.23392,-1.233916 3.55426,-1.900864 4.92071,-2.811835 0.82717,-0.551445 1.28171,-1.55743 2.10888,-2.108875 1.51184,-1.00789 3.46729,-1.018812 4.92071,-2.108877 1.82007,-1.365049 2.97886,-3.144652 4.88997,-4.19589 0.34168,-0.187949 1.01463,0.195591 1.35186,0 1.23035,-0.713594 2.07019,-1.658569 3.3316,-2.225899 1.57917,-0.710245 4.11826,0.711504 5.69676,0 1.77365,-0.799465 0.50137,-2.739507 1.15025,-3.956246 0.43257,-0.811136 1.04739,-3.790138 0.48523,-4.870852 -0.91792,-1.764668 -2.58998,-1.468435 -3.87753,-2.170745 -4.58812,-2.502638 -8.94413,1.179377 -12.84893,3.522258 -2.27588,1.36553 -4.81915,2.559923 -7.02958,4.217752 -1.97662,1.482463 -3.50409,3.648961 -5.62367,4.92071 -0.6433,0.385979 -3.6397,0.878877 -4.17751,1.405916 -1.06613,1.044782 -1.1171,1.235276 -1.87881,1.90055 -0.28127,0.245655 -2.08556,2.341319 -2.53004,2.563564 -2.25302,1.126527 -3.75329,1.544619 -4.63453,3.604355 -0.2874,0.67175 -1.70409,2.624823 -2.41706,2.981312 -0.20959,0.10479 -0.93106,-0.05364 -0.70296,0 2.68804,0.632102 5.39963,1.159539 8.09945,1.739309"
       id="path2347" />
    <path
       style="fill:#000000;stroke:#000000;stroke-width:0.264583px;stroke-linecap:butt;stroke-linejoin:miter;stroke-opacity:1"
       d="m 178.63858,80.54831 c 16.15448,-0.389477 -10.34293,-13.513757 -7.80542,-10.06236 2.51448,3.420072 5.20361,6.70824 7.80542,10.06236"
       id="path2513" />
    <path
       style="fill:#000000;stroke:#000000;stroke-width:0.264583px;stroke-linecap:butt;stroke-linejoin:miter;stroke-opacity:1"
       d="m 173.1613,59.155269 c -0.98073,0.720984 -3.66317,1.18223 -2.94218,2.162958 0.72099,0.980726 2.19498,-3.123861 2.94218,-2.162958 0.92519,1.189799 -0.96646,2.865676 -1.24376,4.347131 -0.43157,2.305632 7.19264,-1.041213 4.82742,-3.981837 -0.75257,-0.935643 -2.39639,-0.185944 -3.58366,-0.365294 z"
       id="path2581" />
    <path
       style="fill:#000080;stroke:#000000;stroke-width:0.264583px;stroke-linecap:butt;stroke-linejoin:miter;stroke-opacity:1"
       d="m 142.32911,78.946573 c -1.54631,3.128957 -2.97485,5.13516 -4.57605,7.995253 -0.27568,0.492416 -2.02322,11.962934 -1.26757,12.760603 0.95544,1.008561 8.04692,0 9.13462,0 4.08924,0 10.86237,-1.108777 14.39898,0.702961 2.38219,1.22034 11.95502,-0.858203 15.21502,0 7.92922,2.08738 15.71477,1.79894 23.22048,-0.702961 1.22988,-0.409962 2.60759,-0.03078 3.73161,-0.626182 3.1491,-1.668092 3.97825,-6.31563 6.13377,-9.175895 0.90197,-1.196872 16.58709,-10.132682 18.61982,-10.132682 1.25283,0 6.97844,-5.072867 5.45282,-7.984246 -0.75984,-1.450026 -2.94348,-2.859757 -4.16822,-3.477488 -1.20578,-0.608174 -0.28565,-1.362033 -1.40591,-2.108875 -4.57545,-3.050299 -4.87887,-6.235734 -11.12598,-6.235734 -1.42645,0 -3.5211,-0.349901 -4.92071,0 -2.46953,0.617382 -4.0667,3.363735 -5.62367,4.92071 -1.30955,1.30955 -3.61116,2.205244 -4.92071,3.514794 -1.25231,1.252307 -1.94249,3.610636 -2.81183,4.911913 -0.36587,0.547642 -1.00223,0.870037 -1.39713,1.397122 -0.86238,1.151043 -0.38733,2.496203 -1.40592,3.514793 -0.16568,0.16569 -0.53726,-0.16569 -0.70295,0 -1.17274,1.172737 -1.52152,2.340076 -2.10888,3.514794 -0.86817,1.736344 -3.31844,2.406825 -3.98448,3.246099 -0.37973,0.478507 -4.36966,0 -5.19099,0 -2.9422,0 -4.73327,-1.245082 -7.32466,-2.108877 -0.88918,-0.296392 -1.91062,0.257492 -2.81184,0 -1.21329,-0.346655 -2.28299,-1.132182 -3.51479,-1.405917 -2.42068,-0.53793 -4.89434,-0.291491 -6.989,-1.405916 -0.2907,-0.154665 0.9024,-0.757143 0.93958,-0.91594 0.15031,-0.641898 -1.31852,0 -1.97777,0 -1.87456,0 -3.75682,0.169714 -5.62367,0 -8.42779,-0.766162 -4.89023,-3.621551 -12.99397,-0.198329 z"
       id="path2809" />
    <path
       style="fill:#ffffff;stroke:#000000;stroke-width:0.264583px;stroke-linecap:butt;stroke-linejoin:miter;stroke-opacity:1"
       d="m 209.32447,60.883574 c 4.48784,-0.842661 8.85293,-1.22565 13.42533,-1.22565 1.98955,0 8.87831,-0.09226 10.40902,0.702958 5.20811,2.705679 4.80025,9.109863 4.80025,13.907394 0,0.199287 0.15617,1.631487 0,1.762332 -8.10205,6.788083 -12.70793,8.412506 -22.86943,-1.748989 -3.86009,-3.860093 -6.86046,-7.831098 -5.76517,-13.398045 z"
       id="path2975" />
  </g>
  <rect
     style="fill:#00ff00;stroke:#44aa00;stroke-width:2;stroke-linejoin:round;stroke-miterlimit:4;stroke-dasharray:none;stroke-opacity:1"
     id="rect890"
     width="10.220866"
     height="32.330574"
     x="89.003159"
     y="94.256538"
     ry="2.452466" />
  <rect
     style="fill:#00ff00;stroke:#44aa00;stroke-width:2;stroke-linejoin:round;stroke-miterlimit:4;stroke-dasharray:none;stroke-opacity:1"
     id="rect890-7"
     width="10.220866"
     height="32.330574"
     x="106.40918"
     y="94.256538"
     ry="2.452466" />
  <rect
     style="fill:#00ff00;stroke:#44aa00;stroke-width:2;stroke-linejoin:round;stroke-miterlimit:4;stroke-dasharray:none;stroke-opacity:1"
     id="rect890-8"
     width="10.220866"
     height="32.330574"
     x="123.81521"
     y="94.256538"
     ry="2.452466" />
</svg>
